<svg xmlns="http://www.w3.org/2000/svg" viewBox="0 0 525.22 851.65"><defs><style>.cls-1,.cls-18{fill:#fff;}.cls-2{fill:#f4f4f4;}.cls-3{fill:#385868;}.cls-4{fill:#f8d3b9;}.cls-5{fill:#83d0c7;}.cls-6{fill:#dca892;}.cls-7{fill:#c48e7c;}.cls-8{fill:#78c1b6;}.cls-9{fill:#ffcdaa;}.cls-10{fill:#e0b698;}.cls-11{fill:#516d7b;}.cls-12{fill:#544f4c;}.cls-13{fill:#e1b79b;}.cls-14{fill:#cb9280;}.cls-15{fill:#805872;}.cls-15,.cls-18{opacity:0.5;}.cls-16{fill:#d39c8d;}.cls-17{fill:#b5e5f7;opacity:0.4;}.cls-19{fill:#bc887a;}</style></defs><title>Asset 190</title><g id="Layer_2" data-name="Layer 2"><g id="Layer_1-2" data-name="Layer 1"><path class="cls-1" d="M510.33,813.06l-23.79,37.45-427.6-1L32.68,822.08A92.75,92.75,0,0,1,7.33,750.13,710.17,710.17,0,0,1,28.5,627.74c3.23-12.19,6.84-24.42,13.07-35.39,16.74-29.44,49.55-45.43,81-57.93,14.47-5.75,50.69-11.14,68.45-16.16a25.68,25.68,0,0,0,4.2,4.2c20.44,17.08,45.74,26,70.81,24.95,25.07,1,50.37-7.87,70.8-24.95a23,23,0,0,0,4.91-5.22c16,5.29,48.37,10,63.82,16.18,31.48,12.5,64.29,28.49,81,57.93,6.23,11,9.84,23.2,13.07,35.39a711,711,0,0,1,22.39,139.39A80.44,80.44,0,0,1,510.33,813.06Z"/><path class="cls-2" d="M25.5,643.74c3.23-12.19,6.84-24.42,13.07-35.39,16.74-29.44,49.55-45.43,81-57.93,14.47-5.75,50.69-11.14,68.45-16.16a25.68,25.68,0,0,0,4.2,4.2c20.44,17.08,45.74,26,70.81,24.95,25.07,1,50.37-7.87,70.8-24.95a23,23,0,0,0,4.91-5.22c16,5.29,48.37,10,63.82,16.18,31.48,12.5,64.29,28.49,81,57.93,6.23,11,9.84,23.2,13.07,35.39a710.9,710.9,0,0,1,22,134,80.57,80.57,0,0,0,.35-13.66,711,711,0,0,0-22.39-139.39c-3.23-12.19-6.84-24.42-13.07-35.39-16.74-29.44-49.55-45.43-81-57.93-15.45-6.15-47.84-10.89-63.82-16.18a23,23,0,0,1-4.91,5.22c-20.43,17.08-45.73,26-70.8,24.95-25.07,1-50.37-7.87-70.81-24.95a25.68,25.68,0,0,1-4.2-4.2c-17.76,5-54,10.41-68.45,16.16-31.47,12.5-64.28,28.49-81,57.93-6.23,11-9.84,23.2-13.07,35.39A710.17,710.17,0,0,0,4.33,747.13a93.35,93.35,0,0,0,.15,17.3A710.13,710.13,0,0,1,25.5,643.74Z"/><path class="cls-3" d="M488.76,851.65l-8.44-5.36,23.79-37.45a75,75,0,0,0,11-43.95,706.69,706.69,0,0,0-22.24-138.41c-3-11.43-6.49-23.49-12.58-34.2-15.85-27.88-47.11-43.28-78.52-55.76-8.22-3.27-21.24-6.21-33.83-9-10.65-2.4-20.71-4.67-28.07-7.15l3.19-9.48c6.86,2.31,16.68,4.53,27.08,6.87,13,2.93,26.37,6,35.32,9.51,33.11,13.16,66.15,29.55,83.53,60.11,6.68,11.75,10.5,25,13.56,36.58A716.69,716.69,0,0,1,525.06,764.3a85,85,0,0,1-12.47,49.84Z"/><path class="cls-3" d="M53.33,851.43,27.07,824A97.8,97.8,0,0,1,.35,748.18,717.17,717.17,0,0,1,21.66,624.93c3.06-11.54,6.87-24.83,13.56-36.58,17.38-30.56,50.41-47,83.53-60.11,8.93-3.55,24-6.85,38.62-10,11.77-2.58,22.89-5,29.78-7.33l3.19,9.48c-7.41,2.49-18.78,5-30.83,7.62-14.21,3.11-28.9,6.33-37.07,9.57C91,550,59.77,565.41,43.91,593.29c-6.09,10.71-9.56,22.77-12.58,34.2A707.12,707.12,0,0,0,10.31,749a87.8,87.8,0,0,0,24,68.07l26.26,27.43Z"/><path class="cls-4" d="M84.2,799.27"/><rect class="cls-3" x="424.86" y="583.76" width="48.79" height="3" transform="translate(-288.16 609.33) rotate(-54.36)"/><path class="cls-3" d="M444.5,582l-2.43-1.76c4.78-6.6,6.88-9.44,8.91-12.2s4.12-5.58,8.88-12.16l2.43,1.76c-4.77,6.58-6.87,9.43-8.9,12.18S449.27,575.41,444.5,582Z"/><polygon class="cls-5" points="340.48 850.51 340.48 525.54 186.48 524.51 186.48 850.51 340.48 850.51"/><rect class="cls-3" x="110.63" y="531.48" width="8" height="156.54"/><path class="cls-3" d="M114.48,725a33.5,33.5,0,1,1,33.5-33.5A33.54,33.54,0,0,1,114.48,725Zm0-59a25.5,25.5,0,1,0,25.5,25.5A25.53,25.53,0,0,0,114.48,666Z"/><path class="cls-3" d="M115,738.51a47.5,47.5,0,1,1,47.5-47.5A47.55,47.55,0,0,1,115,738.51Zm0-87a39.5,39.5,0,1,0,39.5,39.5A39.54,39.54,0,0,0,115,651.51Z"/><path class="cls-6" d="M426.48,636.51V671h-46v-34.5a12,12,0,0,1,12-12h22A12,12,0,0,1,426.48,636.51Z"/><path class="cls-7" d="M414.48,624.51h-22a12,12,0,0,0-12,12v10a12,12,0,0,1,12-12h22a12,12,0,0,1,12,12v-10A12,12,0,0,0,414.48,624.51Z"/><rect class="cls-3" x="426.48" y="670.01" width="20.5" height="6"/><rect class="cls-3" x="358.98" y="670.01" width="21.5" height="6"/><path class="cls-3" d="M429.48,676h-52v-37.5a15,15,0,0,1,15-15h22a15,15,0,0,1,15,15Zm-46-6h40v-31.5a9,9,0,0,0-9-9h-22a9,9,0,0,0-9,9Z"/><path class="cls-8" d="M337.48,528.51v20.26a189.64,189.64,0,0,1-61.62,14.11,195.14,195.14,0,0,1-86.38-14.62V527.51Z"/><path class="cls-9" d="M401.44,230.92c17.26-2.75,33.29,12.33,38,29.18s.93,34.73-2.81,51.8c-1.85,8.43-4.08,17.51-10.75,23-3.83,3.14-8.69,4.71-13.51,5.88A112.74,112.74,0,0,1,387.83,344"/><path class="cls-10" d="M431.48,286a41.5,41.5,0,0,1-39.79,41.47l9.8-81.36A41.53,41.53,0,0,1,431.48,286Z"/><path class="cls-3" d="M387.91,346l-.16-8a108.91,108.91,0,0,0,23.62-3.07c4-1,8.59-2.36,11.91-5.08,5.45-4.48,7.47-12.05,9.39-20.76,3.46-15.75,7.37-33.6,2.86-49.88-5.18-18.71-21.41-28.22-33.47-26.29l-1.26-7.9c19.85-3.16,37.49,14.18,42.44,32.06,5,18.19.9,37.07-2.76,53.73-1.72,7.86-4.09,18.62-12.12,25.23-4.56,3.75-10.19,5.48-15.1,6.67A116.89,116.89,0,0,1,387.91,346Z"/><path class="cls-3" d="M411.46,281.16a63,63,0,0,0-6.26,6.53,48.86,48.86,0,0,0-4.25,6c-2.14,3.63-2.88,6.18-2.25,6.59,1.38.86,7.56-6.93,16.54-14.92s17.32-13.37,16.61-14.84c-.34-.68-3-.21-6.79,1.53a48.86,48.86,0,0,0-6.44,3.58A63,63,0,0,0,411.46,281.16Z"/><ellipse class="cls-3" cx="415.43" cy="289.96" rx="2.83" ry="17.67" transform="translate(-90.89 272.54) rotate(-32.94)"/><path class="cls-9" d="M121,230.92c-17.26-2.75-33.29,12.33-38,29.18s-.93,34.73,2.81,51.8c1.85,8.43,4.08,17.51,10.75,23,3.83,3.14,8.69,4.71,13.51,5.88A112.74,112.74,0,0,0,134.57,344"/><path class="cls-10" d="M90.93,286a41.5,41.5,0,0,0,39.79,41.47l-9.8-81.36A41.53,41.53,0,0,0,90.93,286Z"/><path class="cls-3" d="M134.5,346a116.88,116.88,0,0,1-25.36-3.3c-4.91-1.2-10.54-2.92-15.1-6.67-8-6.6-10.4-17.37-12.12-25.23-3.65-16.66-7.8-35.54-2.76-53.73,5-17.88,22.59-35.22,42.44-32.06l-1.26,7.9c-12.06-1.92-28.29,7.58-33.47,26.29-4.51,16.27-.59,34.13,2.86,49.88,1.91,8.71,3.94,16.28,9.39,20.76,3.32,2.73,7.89,4.1,11.91,5.08A108.9,108.9,0,0,0,134.65,338Z"/><path class="cls-3" d="M111,281.16a63,63,0,0,1,6.26,6.53,48.86,48.86,0,0,1,4.25,6c2.14,3.63,2.88,6.18,2.25,6.59-1.38.86-7.56-6.93-16.54-14.92S89.84,272,90.55,270.54c.34-.68,3-.21,6.79,1.53a48.86,48.86,0,0,1,6.44,3.58A63,63,0,0,1,111,281.16Z"/><ellipse class="cls-3" cx="106.98" cy="289.96" rx="17.67" ry="2.83" transform="translate(-194.54 222.05) rotate(-57.06)"/><path class="cls-9" d="M335.17,411.15a459.91,459.91,0,0,0,5.74,91.27c.57,3.46,1.17,7.11.16,10.43-1,3.48-3.66,5.93-6.22,8.07-20.77,17.35-46.55,26.26-72,24.9h2.4c-25.46,1.36-51.24-7.55-72-24.9-2.56-2.14-5.17-4.6-6.22-8.07-1-3.32-.4-7,.16-10.43a459.91,459.91,0,0,0,5.74-91.27"/><path class="cls-10" d="M338.91,481.67q-5.08,3.57-10.27,7c-20.53,13.37-43.54,24.09-67.26,22.69-26.85-1.58-50.34-18.12-71.84-37q.56-16.07-.05-32.16H338.64Q337.88,461.89,338.91,481.67Z"/><path class="cls-3" d="M260.08,551c-25,0-49.69-9.19-70-26.2-3.22-2.69-6.4-5.83-7.8-10.47-1.34-4.43-.62-8.82,0-12.68a454.94,454.94,0,0,0,5.68-90.28l10-.37a465,465,0,0,1-5.81,92.26c-.48,2.93-1,6-.31,8.17.61,2,2.23,3.67,4.64,5.68,19.3,16.13,42.81,24.53,66.4,23.84v-.1h2.4v.1c23.6.71,47.1-7.71,66.4-23.84,2.41-2,4-3.67,4.64-5.68.67-2.21.17-5.24-.31-8.17A464.94,464.94,0,0,1,330.17,411l10,.37a454.94,454.94,0,0,0,5.68,90.28c.64,3.87,1.36,8.25,0,12.68-1.4,4.64-4.58,7.77-7.8,10.47-21.43,17.91-47.66,27.15-74,26.13C262.73,550.94,261.4,551,260.08,551Z"/><path class="cls-11" d="M258.78,514.08a20.15,20.15,0,0,0,3.68-.77c.53-.21,1.08-.36,1.54-.6.23-.11.49-.19.7-.31l.63-.33c1.61-.85,2.7-1.69,3.36-1.34.31.17.42.61.32,1.33a3.64,3.64,0,0,1-.38,1.23,6.48,6.48,0,0,1-.87,1.45q-.29.37-.63.77a10.19,10.19,0,0,1-.78.73,11.46,11.46,0,0,1-1.94,1.36,13.42,13.42,0,0,1-10.48,1,11.47,11.47,0,0,1-2.16-1,10.1,10.1,0,0,1-.91-.57q-.41-.32-.77-.63a6.5,6.5,0,0,1-1.13-1.26,3.63,3.63,0,0,1-.61-1.13c-.24-.69-.21-1.14.06-1.37.58-.47,1.81.15,3.56.68l.68.21c.23.07.5.1.75.17.49.15,1.06.19,1.62.3A20.14,20.14,0,0,0,258.78,514.08Z"/><path class="cls-12" d="M265.34,458.34"/><path class="cls-12" d="M268.18,465.07"/><path class="cls-9" d="M263.08,82.88c16.63.88,35.94,1.36,52.53-.53,14.11-1.61,30.35-11.09,44.29-6.09,6.46,2.31,11.75,7.54,16.61,12.9,10.18,11.22,19.52,24,24.43,39.09,11.14,34.32-2.49,72.84,2.53,109l.07.49A281.56,281.56,0,0,1,397,351.63l-9.86,36.31a128.17,128.17,0,0,1-123.69,94.57h0a128.17,128.17,0,0,1-123.69-94.57l-9.86-36.31a281.56,281.56,0,0,1-6.52-113.92l.07-.49c5-36.14-8.61-74.66,2.53-109,4.91-15.12,14.26-27.86,24.43-39.09,4.86-5.36,10.16-10.58,16.61-12.9,13.94-5,30.18,4.48,44.29,6.09,16.59,1.89,35.91,1.41,52.53.53"/><path class="cls-10" d="M401.61,204.27c.92-19,3.74-38.18,2.57-56.63C403.25,166.41,400.46,185.58,401.61,204.27Z"/><path class="cls-10" d="M120.78,147.64c-1.18,18.45,1.65,37.62,2.57,56.63C124.5,185.58,121.71,166.41,120.78,147.64Z"/><path class="cls-10" d="M396,327.63l-9.86,36.31a128.17,128.17,0,0,1-123.69,94.57h0a128.17,128.17,0,0,1-123.69-94.57l-9.86-36.31a274.15,274.15,0,0,1-9.33-62.2,276.9,276.9,0,0,0,9.33,82.2l9.86,36.31a128.17,128.17,0,0,0,123.69,94.57h0a128.17,128.17,0,0,0,123.69-94.57L396,347.63a276.92,276.92,0,0,0,9.33-82.2A274.16,274.16,0,0,1,396,327.63Z"/><path class="cls-10" d="M402.49,169.85c-34.81-36.36-84.73-59.13-140.18-59.13-55.72,0-105.85,23-140.67,59.64-.09-11.64.93-23.08,4.5-34.08,4.91-15.12,14.26-27.87,24.44-39.08,4.86-5.36,10.16-10.59,16.61-12.9,13.94-5,30.17,4.48,44.29,6.09,16.48,1.88,35.65,1.42,52.19.55,24.09,1.32,48.57,2.56,72-4.09,1.22-.35,2.44-.72,3.65-1.11a28.17,28.17,0,0,1,23.38,2.91,72.36,72.36,0,0,1,10.94,9c5.72,5.65,11.75,11.41,16.09,18.67C399,131.82,402.24,151.4,402.49,169.85Z"/><path class="cls-13" d="M200.57,208a60.85,60.85,0,0,0-8.09.63c-1.31.16-2.57.42-3.83.63s-2.46.51-3.64.84a78.37,78.37,0,0,0-12.33,4.27c-6.9,3-11.07,5.65-12,4.63-.43-.47.05-1.77,1.46-3.66a34.45,34.45,0,0,1,7.21-6.75,51.56,51.56,0,0,1,13.11-6.8c1.31-.5,2.7-.87,4.11-1.3s2.89-.73,4.4-1a53.9,53.9,0,0,1,9.45-.95,79.74,79.74,0,0,1,17.7,2c5.19,1.11,9.73,2.25,13.57,3.34,7.66,2.18,12.29,4.17,12.07,5.45s-5.24,1.62-13.19,1.13c-4-.24-8.71-.72-13.85-1.33A122.17,122.17,0,0,0,200.57,208Z"/><path class="cls-13" d="M327.69,198.21a60.85,60.85,0,0,1,8-1.55c1.3-.2,2.59-.28,3.86-.41s2.51-.17,3.73-.16a78.37,78.37,0,0,1,13,.83c7.45,1.07,12.18,2.5,12.81,1.26.29-.57-.52-1.69-2.38-3.14a34.45,34.45,0,0,0-8.75-4.59,51.56,51.56,0,0,0-14.45-3.06c-1.4-.13-2.84-.12-4.31-.15s-3,.06-4.5.22a53.9,53.9,0,0,0-9.36,1.61,79.74,79.74,0,0,0-16.53,6.64c-4.7,2.45-8.77,4.76-12.19,6.83-6.8,4.14-10.73,7.29-10.18,8.47s5.49.17,13-2.43c3.75-1.29,8.2-3,13-5A122.17,122.17,0,0,1,327.69,198.21Z"/><path class="cls-3" d="M323.42,185.63a53.91,53.91,0,0,1,9.36-1.6c1.53-.16,3-.18,4.5-.22s2.91,0,4.31.15A51.57,51.57,0,0,1,356,187a34.45,34.45,0,0,1,8.75,4.59c1.86,1.44,2.67,2.57,2.38,3.14-.63,1.24-5.36-.19-12.81-1.26a78.39,78.39,0,0,0-13-.83c-1.22,0-2.46.11-3.73.16s-2.56.21-3.86.41a60.87,60.87,0,0,0-8,1.54,122.23,122.23,0,0,0-15.27,5.4c-4.79,2-9.24,3.68-13,5-7.53,2.59-12.46,3.6-13,2.42s3.38-4.33,10.18-8.47c3.42-2.07,7.49-4.38,12.19-6.83A79.76,79.76,0,0,1,323.42,185.63Z"/><path class="cls-3" d="M201.31,202.8a60.85,60.85,0,0,0-8.09.63c-1.31.16-2.57.42-3.83.63s-2.46.51-3.64.84a78.37,78.37,0,0,0-12.33,4.27c-6.9,3-11.07,5.65-12,4.63-.43-.47.05-1.77,1.46-3.66a34.45,34.45,0,0,1,7.21-6.75,51.56,51.56,0,0,1,13.11-6.8c1.31-.5,2.7-.87,4.11-1.3s2.89-.73,4.4-1a53.9,53.9,0,0,1,9.45-.95,79.74,79.74,0,0,1,17.7,2c5.19,1.11,9.73,2.25,13.57,3.34,7.66,2.18,12.29,4.17,12.07,5.45s-5.24,1.62-13.19,1.13c-4-.24-8.71-.72-13.85-1.33A122.17,122.17,0,0,0,201.31,202.8Z"/><path class="cls-3" d="M262.48,487.51A133.43,133.43,0,0,1,134,389.25l-9.86-36.31C114,315.7,111.76,276.69,117.46,237l.07-.47c2.09-15,.8-30.95-.45-46.36-1.71-21.12-3.47-43,3.18-63.47,4.42-13.6,12.51-26.6,25.49-40.9C151,80,156.94,74.21,164.37,71.55,175,67.73,186.49,71.06,196.6,74a90.4,90.4,0,0,0,14.32,3.38c17.28,2,37.56,1.25,51.42.52h.28c13.86.73,34.15,1.45,51.42-.52A90.41,90.41,0,0,0,328.36,74c10.1-2.94,21.56-6.27,32.22-2.45C368,74.21,373.93,80,379.22,85.8c13,14.3,21.07,27.3,25.49,40.9,6.66,20.5,4.89,42.35,3.18,63.47-1.25,15.42-2.54,31.36-.45,46.37l.07.47c5.7,39.68,3.47,78.69-6.65,115.93L391,389.25A133.43,133.43,0,0,1,262.48,487.51ZM174.92,79.81A21.08,21.08,0,0,0,167.75,81c-5.07,1.82-9.5,5.93-14.6,11.55-12,13.22-19.42,25.06-23.38,37.27-6,18.6-4.43,38.5-2.72,59.58,1.29,16,2.62,32.45.39,48.55l-.07.51c-5.51,38.33-3.35,76,6.4,111.9l9.86,36.31a123.17,123.17,0,0,0,237.72,0l9.86-36.31c9.75-35.92,11.91-73.56,6.4-111.89l-.07-.52c-2.24-16.09-.9-32.59.39-48.54,1.7-21.07,3.31-41-2.72-59.58-4-12.21-11.39-24.05-23.38-37.27-5.1-5.62-9.53-9.73-14.6-11.55-7.61-2.73-16.57-.12-26.06,2.63a99,99,0,0,1-16,3.71c-17.85,2-38.49,1.33-52.7.59-14.21.74-34.84,1.44-52.7-.59a98.94,98.94,0,0,1-16-3.71C187.16,81.67,180.77,79.81,174.92,79.81Z"/><path class="cls-3" d="M222.91,14.53c-1.59-8-.79-14.56,0-14.53s1.42,6.34,2.94,13.95,3.36,13.69,2.56,14S224.46,22.49,222.91,14.53Z"/><path class="cls-3" d="M168.06,18.28a10.32,10.32,0,0,1,3.37-4.46c1.19-.84,2.12-1,2.35-.69.48.71-1.64,2.93-2.93,6.28s-1.4,6.38-2.23,6.56c-.39.07-.94-.69-1.21-2.12A10.32,10.32,0,0,1,168.06,18.28Z"/><path class="cls-3" d="M183.29,14.95a24.61,24.61,0,0,1,0-9c.47-2.26,1.15-3.54,1.54-3.46.85.18.22,5.54,1.39,11.9s3.51,11.19,2.77,11.65c-.34.21-1.42-.76-2.63-2.72A24.61,24.61,0,0,1,183.29,14.95Z"/><path class="cls-3" d="M418,182c5-5.32,7.41-10.92,8.24-10.63.37.13.25,1.75-.66,4.17A27.6,27.6,0,0,1,412.11,190c-2.35,1.09-4,1.33-4.11,1C407.64,190.17,413.05,187.35,418,182Z"/><path class="cls-3" d="M425,122.16a8.22,8.22,0,0,1,4.48,1.94c.94.86,1.22,1.66,1,2-.59.61-2.85-.61-5.79-.91s-5.41.25-5.84-.49c-.19-.35.27-1.06,1.39-1.67A8.22,8.22,0,0,1,425,122.16Z"/><path class="cls-3" d="M423.35,117.44a13.85,13.85,0,0,1,4.68-2.86c1.35-.45,2.28-.43,2.44-.06.32.79-2.32,2.58-5.1,5.14s-4.85,5-5.6,4.59c-.35-.2-.28-1.13.29-2.42A13.85,13.85,0,0,1,423.35,117.44Z"/><path class="cls-3" d="M97.7,112.27c-3.57-3.37-7.47-4.83-7.28-5.67.09-.38,1.26-.53,3.07-.07a15.63,15.63,0,0,1,10.27,9.5c.6,1.76.54,2.94.17,3.06C103.09,119.35,101.34,115.57,97.7,112.27Z"/><path class="cls-3" d="M97.43,117.48A17.94,17.94,0,0,0,94.59,116a17.68,17.68,0,0,0-2.53-.79c-1.5-.35-2.55-.46-2.64-.89s.9-1,2.77-1.23a9.86,9.86,0,0,1,3.25.27,11.88,11.88,0,0,1,6.57,4.38,9.86,9.86,0,0,1,1.5,2.89c.55,1.79.3,3-.07,3s-.94-.85-1.84-2.1a17.68,17.68,0,0,0-1.7-2A17.94,17.94,0,0,0,97.43,117.48Z"/><path class="cls-14" d="M420.3,149.51c-4,29.58-12.63,49.75-16.6,79.33-6.42-27.61-5.25-46.67-16-73s-30.29-51-57.9-59.6c-12-3.74-24.86-4.22-37.48-4.32q-24.75-.19-49.45,1.67c-15.9,1.2-32.31,3-46.38,10.39-29,15.25-40.44,49.38-49.39,80.31-3.92,13.55-9,30.62-12.94,44.17l-3.39,8.92c-4-27-10.43-60.13-15.81-90.77a140.59,140.59,0,0,1,5.62-70.42h0a76.82,76.82,0,0,1,96.87-47.7h0l54-14.59A118.34,118.34,0,0,1,375.07,34.79l1.36,1.06A118.34,118.34,0,0,1,420.3,149.51Z"/><path class="cls-15" d="M372.43,34.86l-1.36-1.06A118.33,118.33,0,0,0,301.15,8.86a118.28,118.28,0,0,1,50.92,22.94l1.36,1.06A118.34,118.34,0,0,1,397.3,146.51h0A287.81,287.81,0,0,1,391,178.3c3.49,15.87,4.35,30.72,8.72,49.53,4-29.58,12.63-49.75,16.6-79.33h0A118.34,118.34,0,0,0,372.43,34.86Z"/><path class="cls-16" d="M210.54,27.05c-6.25,10.47-15.13,19.62-24.26,27.86C172.34,67.52,157.07,79.19,146.87,95c-14.16,21.9-17,49.33-15.32,75.36a253.86,253.86,0,0,0,5.82,40.41c-1.81,6.18-3.59,12.24-5.18,17.73l-3.39,8.93c-4-27.05-10.43-60.13-15.81-90.77a140.56,140.56,0,0,1,5.62-70.42,76.71,76.71,0,0,1,91.93-49.16Z"/><circle class="cls-3" cx="207.3" cy="244.19" r="18.12"/><circle class="cls-3" cx="321.95" cy="244.19" r="18.12"/><circle class="cls-1" cx="315.66" cy="237.9" r="4.44"/><circle class="cls-1" cx="201.01" cy="237.9" r="4.44"/><path class="cls-3" d="M123.65,257.12l-2.8-19c-2.73-18.54-6.71-40.39-10.55-61.52-1.75-9.61-3.56-19.56-5.24-29.11a146,146,0,0,1,5.82-72.92A81.82,81.82,0,0,1,212.61,23.3L265.17,9.09a124,124,0,0,1,108,21.76l1.36,1.06a123.11,123.11,0,0,1,45.74,118.36c-2,15-5.26,27.79-8.4,40.13-3.07,12.09-6.25,24.59-8.19,39.1L400,256.6,393.83,230c-2.41-10.38-3.76-19.46-5.06-28.25-2.13-14.36-4.14-27.92-10.67-44-11.77-28.88-31.73-49.55-54.76-56.71-11.62-3.61-24.17-4-36-4.09-16.29-.13-32.78.43-49,1.66-15.2,1.14-31.16,2.84-44.42,9.83C167.11,122.5,156,154.32,146.93,185.7c-2,6.78-4.22,14.44-6.47,22.1S136,223.1,134,229.87l-.13.39ZM188.13,29.54a71.94,71.94,0,0,0-67.8,48.32,135.93,135.93,0,0,0-5.42,67.91c1.67,9.53,3.48,19.46,5.23,29.05,2.53,13.91,5.12,28.13,7.38,41.54L130.86,205c2.25-7.64,4.5-15.29,6.46-22C147,149.47,159,115.48,189.19,99.58c15-7.87,32.08-9.73,48.33-11,16.52-1.24,33.3-1.81,49.86-1.68,12.61.1,26,.53,38.93,4.54,25.89,8.05,48.14,30.83,61,62.49,7,17.16,9.09,31.3,11.31,46.28l.16,1.11c1.08-4.58,2.21-9,3.33-13.42,3.07-12.09,6.25-24.59,8.19-39.1l0-.19a113.12,113.12,0,0,0-42-108.85L367,38.74a113.9,113.9,0,0,0-99.21-20l-55.45,15-1.43-.48A72,72,0,0,0,188.13,29.54Z"/><circle class="cls-17" cx="205.06" cy="244.09" r="32.58"/><path class="cls-18" d="M223.92,219.62,212,276.37a32.83,32.83,0,0,1-15.46.42L209.94,213A32.35,32.35,0,0,1,223.92,219.62Z"/><path class="cls-18" d="M203.52,214,190.31,276.8a32.29,32.29,0,0,1-6.88-3.82l12.25-58.24a32.71,32.71,0,0,1,6.88-.73Z"/><path class="cls-3" d="M205.06,281.68a37.58,37.58,0,1,1,37.58-37.58A37.63,37.63,0,0,1,205.06,281.68Zm0-65.17a27.58,27.58,0,1,0,27.58,27.58A27.61,27.61,0,0,0,205.06,216.51Z"/><circle class="cls-17" cx="322.06" cy="244.09" r="32.58"/><path class="cls-18" d="M340.92,219.62,329,276.37a32.83,32.83,0,0,1-15.46.42L326.94,213A32.35,32.35,0,0,1,340.92,219.62Z"/><path class="cls-18" d="M320.52,214,307.31,276.8a32.29,32.29,0,0,1-6.88-3.82l12.25-58.24a32.71,32.71,0,0,1,6.88-.73Z"/><path class="cls-3" d="M322.06,281.68a37.58,37.58,0,1,1,37.58-37.58A37.63,37.63,0,0,1,322.06,281.68Zm0-65.17a27.58,27.58,0,1,0,27.58,27.58A27.61,27.61,0,0,0,322.06,216.51Z"/><rect class="cls-3" x="238.62" y="232.91" width="50.86" height="10"/><rect class="cls-3" x="259.48" y="261.51" width="10" height="78"/><path class="cls-3" d="M212.53,406.76c31.11,18.67,74.08,18.14,105.22-.11,5-2.93.47-10.71-4.54-7.77-28.43,16.66-67.73,17.15-96.14.11-5-3-9.51,4.79-4.54,7.77Z"/><rect class="cls-3" x="250.17" y="427.51" width="29.5" height="3"/><path class="cls-19" d="M297.89,76.3a149.79,149.79,0,0,1,24.44,5.14,120.52,120.52,0,0,1,19,7.48,93.13,93.13,0,0,1,11.85,7c2.65,1.87,4,3,3.91,3.18-.25.38-6.09-3.79-16.53-8.5a136.78,136.78,0,0,0-18.87-6.85,163.92,163.92,0,0,0-24.1-4.87c-17.36-2.15-33.29-1.67-44.76-1.06s-18.59,1.33-18.64.94c0-.17,1.73-.56,4.92-1.07s7.83-1.13,13.59-1.67A210.33,210.33,0,0,1,297.89,76.3Z"/><path class="cls-19" d="M277.68,68.12a149.79,149.79,0,0,1,24.85,2.52,120.5,120.5,0,0,1,19.67,5.42,93.11,93.11,0,0,1,12.52,5.66c2.83,1.58,4.31,2.61,4.23,2.74-.21.4-6.46-3.12-17.34-6.7a136.8,136.8,0,0,0-19.49-4.81,163.93,163.93,0,0,0-24.48-2.28c-17.49-.3-33.28,1.87-44.62,3.7s-18.35,3.3-18.43,2.92c0-.17,1.66-.74,4.78-1.59s7.67-2,13.33-3.11A210.31,210.31,0,0,1,277.68,68.12Z"/><path class="cls-19" d="M129.39,74.15a71,71,0,0,1,9.33-13.45A45.64,45.64,0,0,1,149,52.08a31.46,31.46,0,0,1,8.32-3.53c2.08-.47,3.26-.55,3.29-.39.13.46-4.55,1.3-10.64,5.44a49.5,49.5,0,0,0-9.49,8.65,77.38,77.38,0,0,0-8.86,13.12,98.11,98.11,0,0,0-6.48,14.51,62.12,62.12,0,0,0-3,12.56,48,48,0,0,0-.32,8.72c.09,2.07.21,3.24,0,3.27s-.59-1.07-1-3.16a35,35,0,0,1-.49-9,55.22,55.22,0,0,1,2.57-13.13A86.91,86.91,0,0,1,129.39,74.15Z"/><path class="cls-19" d="M318.8,26.37a74,74,0,0,1,12.27,5.8c1.76,1.12,3.46,2.15,4.92,3.29.74.56,1.48,1.06,2.14,1.61l1.89,1.6a42,42,0,0,1,3.09,2.91c.44.44.85.85,1.21,1.24l.94,1.12c1.12,1.36,1.67,2.16,1.54,2.28-.31.29-3-2.45-7.92-6.14l-1.94-1.43c-.67-.49-1.42-.94-2.17-1.45-1.48-1-3.16-2-4.9-3a78,78,0,0,0-24.63-8.79c-2-.3-3.89-.65-5.69-.78-.9-.08-1.76-.21-2.59-.25l-2.4-.12c-6.13-.24-10,.16-10-.26,0-.17.91-.45,2.63-.79l1.44-.27c.53-.08,1.11-.13,1.73-.19a42,42,0,0,1,4.23-.29l2.47,0c.86,0,1.75.07,2.68.11,1.86,0,3.82.32,5.89.57A74,74,0,0,1,318.8,26.37Z"/><path class="cls-19" d="M157.17,107.88a47.76,47.76,0,0,1,8.94-9.25,36.58,36.58,0,0,1,9.11-5.27,26.16,26.16,0,0,1,6.86-1.74c1.66-.16,2.59-.07,2.6.09.06.44-3.59.81-8.74,3.31a41,41,0,0,0-8.35,5.45,51.77,51.77,0,0,0-8.35,8.93c-5.16,7.07-8.41,14.45-10.81,19.75s-3.89,8.63-4.23,8.5.6-3.63,2.56-9.17A81.25,81.25,0,0,1,157.17,107.88Z"/><path class="cls-19" d="M162.57,92a32.62,32.62,0,0,1,6.63-3.12,28,28,0,0,1,3.09-.82,21,21,0,0,1,2.74-.42c3.39-.31,5.46.15,5.45.46s-2,.58-5.15,1.32c-.78.19-1.63.39-2.51.69s-1.83.62-2.81,1a36.89,36.89,0,0,0-11.47,7.2c-.75.73-1.49,1.4-2.11,2.11s-1.21,1.34-1.72,2c-2,2.48-3.07,4.23-3.43,4.06s.2-2.19,2-5.11A21.05,21.05,0,0,1,154.8,99a27.9,27.9,0,0,1,2.08-2.43A32.62,32.62,0,0,1,162.57,92Z"/><path class="cls-19" d="M394.22,113.17a83.91,83.91,0,0,0-.38-16.71c-.43-4.32-.62-7-.26-7.1s1.15,2.53,2,6.83a57.8,57.8,0,0,1,1.13,17.25,34.88,34.88,0,0,1-2.34,9.39,26.66,26.66,0,0,1-4,6.83c-2.91,3.52-5.55,4.69-5.69,4.44s1.91-2,4.24-5.52A34.86,34.86,0,0,0,394.22,113.17Z"/><path class="cls-19" d="M388.51,91.09A54.52,54.52,0,0,0,387,85c-.6-1.85-1.21-3.49-1.8-4.85-1.15-2.73-2-4.4-1.7-4.62s1.67,1.15,3.3,3.79a31,31,0,0,1,2.41,4.89,34.84,34.84,0,0,1,2.36,13.13,30.93,30.93,0,0,1-.56,5.43c-.61,3.05-1.46,4.79-1.77,4.71s-.15-2,0-4.92c.08-1.48.08-3.24,0-5.18A54.59,54.59,0,0,0,388.51,91.09Z"/><path class="cls-3" d="M264.45,363.29q-1,0-2-.07c-12.83-.92-20.87-10.58-21.21-11l5.41-4.44c.06.08,6.57,7.79,16.37,8.46,6.76.45,13.68-2.5,20.57-8.81l4.73,5.16C280.59,359.7,272.56,363.29,264.45,363.29Z"/><rect class="cls-3" x="179.48" y="518.51" width="10" height="332"/><rect class="cls-3" x="336.48" y="514.51" width="10" height="336"/></g></g></svg>