<svg xmlns="http://www.w3.org/2000/svg" viewBox="0 0 454.41 552.27"><defs><style>.cls-1,.cls-6{fill:#4b2e4c;}.cls-1{opacity:0.08;}.cls-2{fill:#584e60;}.cls-3{fill:#ac8067;}.cls-4,.cls-5{fill:#c69a83;}.cls-4{opacity:0.8;}.cls-7{fill:#67ffca;}.cls-22,.cls-8{fill:#fff;}.cls-9{fill:#665c6d;}.cls-10{opacity:0.27;}.cls-11{fill:#f9c9ab;}.cls-12,.cls-18,.cls-20{fill:#e19f7f;}.cls-12{opacity:0.46;}.cls-13{fill:#4f3e52;}.cls-14{fill:#443547;}.cls-15{opacity:0.21;}.cls-16{fill:#f0cae7;}.cls-17{fill:#a0725c;}.cls-18{opacity:0.31;}.cls-19{fill:#dc8c72;}.cls-20{opacity:0.69;}.cls-21{fill:#d6836f;opacity:0.42;}.cls-22{opacity:0.15;}.cls-23{fill:#413044;}.cls-24{opacity:0.51;}.cls-25{fill:#f9646b;}.cls-26{fill:#eab192;}</style></defs><title>Asset 3</title><g id="Layer_2" data-name="Layer 2"><g id="Layer_1-2" data-name="Layer 1"><rect class="cls-1" x="12.15" y="82.52" width="442.26" height="276.34" rx="11.82"/><rect class="cls-2" x="270.07" y="450.83" width="31.8" height="100.1" rx="15.9"/><rect class="cls-2" x="268.54" y="357.9" width="35.64" height="136.55" rx="17.82"/><circle class="cls-3" cx="263.92" cy="13.39" r="13.39"/><path class="cls-4" d="M254.56,22.06a1.49,1.49,0,0,1-1.05-.43c-2.32-2.27-3.06-5.95-3-8.63a12,12,0,0,1,1.2-5,1.5,1.5,0,0,1,2.68,1.35,8.91,8.91,0,0,0-.88,3.77c-.07,2.11.55,4.9,2.07,6.4a1.5,1.5,0,0,1-1.05,2.57Z"/><circle class="cls-5" cx="253.83" cy="11.26" r="1.29"/><circle class="cls-5" cx="255.99" cy="9.78" r="0.5"/><circle class="cls-5" cx="257.2" cy="11.84" r="0.71"/><circle class="cls-5" cx="255.57" cy="14.11" r="1.01"/><circle class="cls-5" cx="259.01" cy="9.92" r="0.47"/><circle class="cls-5" cx="257.24" cy="9.33" r="0.34"/><circle class="cls-5" cx="259.23" cy="12.02" r="0.53"/><circle class="cls-5" cx="255.96" cy="8.15" r="0.13"/><rect class="cls-6" y="70.18" width="442.26" height="276.34" rx="11.82"/><rect class="cls-7" x="23.2" y="90.79" width="149.86" height="22.79"/><rect class="cls-8" x="23.2" y="140.52" width="149.86" height="9.69"/><rect class="cls-8" x="23.2" y="163.45" width="149.86" height="9.69"/><rect class="cls-8" x="23.2" y="186.41" width="68.23" height="9.63"/><path class="cls-7" d="M31.84,319.65A11.15,11.15,0,1,1,43,308.5,11.16,11.16,0,0,1,31.84,319.65Zm0-17.29A6.15,6.15,0,1,0,38,308.5,6.14,6.14,0,0,0,31.84,302.36Z"/><path class="cls-8" d="M44.5,296.64a2,2,0,0,1-1.17-.38,2,2,0,0,1-.45-2.79L50.51,283a2,2,0,1,1,3.24,2.34l-7.63,10.53A2,2,0,0,1,44.5,296.64Zm73.62-16.06a2,2,0,0,1-1.43-.59l-5.18-5.25a2,2,0,1,1,2.84-2.81l3.57,3.61,2-2.64a2,2,0,0,1,3.18,2.43l-3.42,4.47a2,2,0,0,1-1.46.78Zm-57.77-5.79a2,2,0,0,1-1.62-3.18l7.64-10.52a2,2,0,1,1,3.23,2.35L62,274A2,2,0,0,1,60.35,274.79Zm42.74-9.42a2,2,0,0,1-1.42-.59l-9.13-9.25a2,2,0,1,1,2.84-2.81l9.14,9.25a2,2,0,0,1-1.43,3.4ZM130,265a2,2,0,0,1-1.21-.41,2,2,0,0,1-.38-2.8l7.9-10.33a2,2,0,0,1,3.18,2.43l-7.9,10.33A2,2,0,0,1,130,265ZM76.2,252.93a2,2,0,0,1-1.61-3.17l6.18-8.53a2,2,0,0,1,1.47-.82,2,2,0,0,1,1.57.59l1.73,1.76a2,2,0,1,1-2.84,2.81l-.08-.08-4.8,6.61A2,2,0,0,1,76.2,252.93Zm147.16-7.1a2,2,0,0,1-1.5-.68l-8.6-9.75a2,2,0,0,1,3-2.64l8.6,9.75a2,2,0,0,1-.18,2.82A2,2,0,0,1,223.36,245.83Zm-76.93-2.29a2,2,0,0,1-1.59-3.21L152.73,230a2,2,0,0,1,3.18,2.43L148,242.76A2,2,0,0,1,146.43,243.54Zm86-4.58a2,2,0,0,1-1.53-3.29l8.37-9.95a2,2,0,0,1,3.06,2.58l-8.37,9.95A2,2,0,0,1,232.41,239Zm82-5.59a2,2,0,0,1-1.4-.57l-9.26-9.13a2,2,0,0,1,2.8-2.85l9.26,9.13a2,2,0,0,1-1.4,3.42Zm9.65-.19a2,2,0,0,1-1.49-3.34l8.67-9.69A2,2,0,0,1,334,220a2,2,0,0,1,.16,2.83l-8.67,9.69A2,2,0,0,1,324,233.18Zm-118.53-7.6a2,2,0,0,1-1.5-.68l-8.6-9.75a2,2,0,0,1,3-2.64l8.6,9.75a2,2,0,0,1-1.5,3.32Zm-42.68-3.49a2,2,0,0,1-1.21-.41,2,2,0,0,1-.37-2.8l7.89-10.33a2,2,0,1,1,3.18,2.43l-7.9,10.33A2,2,0,0,1,162.82,222.09Zm87-3.79a2,2,0,0,1-1.53-3.29l8.37-9.95a2,2,0,0,1,3.06,2.58l-8.37,10A2,2,0,0,1,249.8,218.3Zm45.35-3.88a2,2,0,0,1-1.41-.58l-9.26-9.12a2,2,0,1,1,2.81-2.85l9.26,9.12a2,2,0,0,1-1.4,3.43ZM342,213a2,2,0,0,1-1.33-.51,2,2,0,0,1-.16-2.82L349.2,200a2,2,0,1,1,3,2.66l-8.66,9.7A2,2,0,0,1,342,213Zm-154.38-7.71a2,2,0,0,1-1.5-.68l-4.82-5.46-.51.67a2,2,0,0,1-3.18-2.43l2-2.61a2,2,0,0,1,1.52-.78,2,2,0,0,1,1.57.67l6.43,7.3a2,2,0,0,1-1.5,3.32Zm79.54-7.69a2,2,0,0,1-1.53-3.29l5-5.89a2,2,0,0,1,2.93-.14l3.78,3.72a2,2,0,0,1-2.81,2.85l-2.23-2.2-3.57,4.24A2,2,0,0,1,267.18,197.64ZM360,192.91a2,2,0,0,1-1.34-.51,2,2,0,0,1-.15-2.82l8.66-9.69a2,2,0,1,1,3,2.66l-8.66,9.69A2,2,0,0,1,360,192.91Zm18-20.13a2,2,0,0,1-1.49-3.33l8.66-9.7a2,2,0,1,1,3,2.67l-8.66,9.69A2,2,0,0,1,378,172.78Zm18-20.13a2,2,0,0,1-1.49-3.34l6.07-6.79a2,2,0,1,1,3,2.67L397.49,152A2,2,0,0,1,396,152.65Z"/><rect class="cls-9" x="228.4" y="450.83" width="31.8" height="100.1" rx="15.9"/><rect class="cls-9" x="226.48" y="357.9" width="35.64" height="136.55" rx="17.82"/><path class="cls-6" d="M286.83,535.62h14.6a16.65,16.65,0,0,1,16.65,16.65v0a0,0,0,0,1,0,0H270.18a0,0,0,0,1,0,0v0A16.65,16.65,0,0,1,286.83,535.62Z"/><path class="cls-6" d="M229.16,535.62h14.6a16.65,16.65,0,0,1,16.65,16.65v0a0,0,0,0,1,0,0H212.51a0,0,0,0,1,0,0v0A16.65,16.65,0,0,1,229.16,535.62Z"/><g class="cls-10"><rect class="cls-8" x="234.05" y="423.99" width="4.42" height="15.03" rx="2.21"/><rect class="cls-8" x="234.05" y="443.22" width="4.42" height="8.03" rx="2.21"/></g><circle class="cls-9" cx="264.18" cy="381.83" r="38.39"/><polyline class="cls-11" points="345.08 303.41 335.73 378.19 318.2 377.61 310.61 294.64"/><polyline class="cls-11" points="188.26 303.41 197.6 378.19 215.13 377.61 222.73 294.64"/><path class="cls-12" d="M188.26,303.41l4.51,2.48a43.22,43.22,0,0,1,22.36,37.85V377.6l7.6-83"/><path class="cls-12" d="M344.94,303.41l-4.51,2.48a43.2,43.2,0,0,0-22.36,37.85V377.6l-7.6-83"/><path class="cls-13" d="M352,310.48a628.38,628.38,0,0,1-8.4-64.38c-.8-10.18-1.67-21.19-8.4-28.86-5.58-6.37-14.12-9.13-22.22-11.62L294.78,200l-26.15-20.78c0-1.65,0-3.29-.05-4.94l-3.09,2.45-3.08-2.45c0,1.65,0,3.29-.05,4.94L236.21,200,218,205.62c-8.1,2.49-16.64,5.25-22.23,11.62-6.72,7.67-7.6,18.68-8.39,28.86a631.18,631.18,0,0,1-8.4,64.38c-.22,1.2-.33,2.69.67,3.38a3.21,3.21,0,0,0,1.59.4q17.81,1.32,35.67,1.34l.28.49c8.72,18.47,2.13,41.2,10,60.06,1,2.35,2.26,4.71,4.4,6.08a14.28,14.28,0,0,0,6.15,1.7,269.06,269.06,0,0,0,47.24.76c4.71-.29,10.24-.05,14.45-2.46,2.14-1.37,3.43-3.73,4.41-6.08,7.85-18.86,1.26-41.59,10-60.06l.29-.49q17.85,0,35.66-1.34a3.16,3.16,0,0,0,1.59-.4C352.35,313.17,352.24,311.68,352,310.48Z"/><path class="cls-14" d="M317.41,207a47.71,47.71,0,0,1-70.81,4.39,47.74,47.74,0,0,0,50.62-10.64l15.1,4.63C314,205.94,315.72,206.47,317.41,207Z"/><g class="cls-15"><path class="cls-16" d="M300.09,196.63a.15.15,0,0,0,0-.3.15.15,0,1,0,0,.3Z"/></g><path class="cls-3" d="M264.08,24h0A51.12,51.12,0,0,0,213,75.15h0a16.47,16.47,0,0,0,16.47,16.47h69.29a16.46,16.46,0,0,0,16.46-16.47h0A51.11,51.11,0,0,0,264.08,24Z"/><path class="cls-3" d="M216.61,125.64h95.48a0,0,0,0,1,0,0V167a47.74,47.74,0,0,1-47.74,47.74h0A47.74,47.74,0,0,1,216.61,167v-41.4A0,0,0,0,1,216.61,125.64Z"/><path class="cls-17" d="M264.31,204.72h0A47.73,47.73,0,0,1,216.57,157V167a47.74,47.74,0,0,0,47.74,47.74h0A47.74,47.74,0,0,0,312,167V157A47.73,47.73,0,0,1,264.31,204.72Z"/><circle class="cls-11" cx="218.39" cy="112.42" r="14.54"/><path class="cls-18" d="M231.2,119.27A14.54,14.54,0,1,1,210,100.56a14.21,14.21,0,0,0-1.73,6.87A14.54,14.54,0,0,0,222.78,122,14.37,14.37,0,0,0,231.2,119.27Z"/><circle class="cls-19" cx="218.39" cy="112.42" r="7.91"/><circle class="cls-11" cx="311.51" cy="112.42" r="14.54"/><path class="cls-18" d="M324.32,119.27a14.54,14.54,0,1,1-21.24-18.71,14.21,14.21,0,0,0-1.73,6.87A14.54,14.54,0,0,0,315.9,122,14.37,14.37,0,0,0,324.32,119.27Z"/><circle class="cls-19" cx="311.51" cy="112.42" r="7.91"/><path class="cls-11" d="M297.59,44.91A47.5,47.5,0,0,0,216.5,78.5v56.55a47.51,47.51,0,0,0,95,0V78.5A47.29,47.29,0,0,0,297.59,44.91Zm-53.11,95.54.16.07"/><path class="cls-20" d="M307.94,78.14v5.29c0-12.07-4.85-18-12.72-25.86a43.07,43.07,0,0,0-30.69-12.79c-24,0-43.4,18.55-43.4,42.65V82.14c0-24.1,19.43-42.65,43.4-42.65a43.07,43.07,0,0,1,30.69,12.79C303.09,60.18,307.94,66.08,307.94,78.14Z"/><path class="cls-3" d="M297.89,44.16a47.15,47.15,0,0,0-33.59-14c-26.23,0-48.5,21.39-48.5,47.77l1,56.86a47.51,47.51,0,1,0,95,0l1-56.86C312.81,64.73,306.5,52.8,297.89,44.16Zm9.82,88.18a43.41,43.41,0,1,1-86.81,0v-48c0-24.1,19.43-42.64,43.4-42.64A43,43,0,0,1,295,54.53c7.87,7.89,12.72,13.79,12.72,25.85Z"/><path class="cls-17" d="M307.71,74.5v5.86c0-12.07-4.85-18-12.72-25.86A43,43,0,0,0,264.3,41.71c-24,0-43.4,18.54-43.4,42.65V78.5c0-24.1,19.43-42.64,43.4-42.64A43,43,0,0,1,295,48.65C302.86,56.54,307.71,62.44,307.71,74.5Z"/><rect class="cls-21" x="261.59" y="115.36" width="6.24" height="16.23" rx="3.12"/><circle class="cls-8" cx="282.59" cy="105.37" r="13.15"/><circle class="cls-3" cx="263.16" cy="169.58" r="19.06"/><circle class="cls-3" cx="246.73" cy="162.92" r="19.06"/><circle class="cls-3" cx="282.23" cy="162.47" r="19.06"/><circle class="cls-3" cx="264.51" cy="154.1" r="19.06"/><path class="cls-3" d="M311.81,140.28a51.43,51.43,0,0,0,.06-9.95h-.06V98h0a5.89,5.89,0,0,0-5.88,5.89v22.41a25,25,0,0,1-4.46,14.51,19.08,19.08,0,0,1-16.24,8.35l14.88,18.55a49.62,49.62,0,0,0,11.68-27.18h0Z"/><ellipse class="cls-13" cx="282.59" cy="105.77" rx="4.54" ry="7.38"/><circle class="cls-8" cx="246.36" cy="105.37" r="13.15"/><ellipse class="cls-13" cx="246.65" cy="105.77" rx="4.54" ry="7.38"/><rect class="cls-3" x="232.08" y="75.02" width="29.14" height="7.5" rx="3.75"/><rect class="cls-3" x="268.11" y="73.66" width="29.14" height="7.5" rx="3.75"/><circle class="cls-8" cx="250.43" cy="103.57" r="2.2"/><circle class="cls-8" cx="286.65" cy="103.57" r="2.2"/><path class="cls-3" d="M243.45,149.15a19.27,19.27,0,0,1-17-9.41,25.2,25.2,0,0,1-3.81-13.56v-22.3A5.89,5.89,0,0,0,216.8,98h0l-.3,23v9.3c.06,3.53-.06,6.46.2,9.36l.1.9,0,.51c.31,2.9.23,5.42.92,7.91a41.93,41.93,0,0,0,10.89,18.76Z"/><circle class="cls-22" cx="278.9" cy="109.1" r="3.33"/><circle class="cls-22" cx="242.35" cy="109.1" r="3.33"/><rect class="cls-13" x="245.1" y="18.72" width="38.42" height="12.68" rx="6.34"/><path class="cls-23" d="M283.51,25.06a6.33,6.33,0,0,1-6.34,6.34H251.44a6.34,6.34,0,0,1-6.34-6.34,5.69,5.69,0,0,1,.22-1.61,6.31,6.31,0,0,0,6.12,4.72h25.73a6.33,6.33,0,0,0,6.13-4.72A6.07,6.07,0,0,1,283.51,25.06Z"/><rect class="cls-13" x="261.05" y="100.97" width="6.98" height="3"/><g class="cls-24"><path class="cls-8" d="M296.05,84.74l-26.68,31.9a9.13,9.13,0,0,1-.14-1.59V99.4l12.26-14.66Z"/><path class="cls-8" d="M309.36,86.24l-31.25,37.37h-.31a8.46,8.46,0,0,1-5.66-2.15l30.71-36.72h1.67A8.54,8.54,0,0,1,309.36,86.24Z"/></g><path class="cls-13" d="M304.36,125.6H277.63a10.08,10.08,0,0,1-10.07-10.07V93.8a10.08,10.08,0,0,1,10.07-10.06h26.73A10.07,10.07,0,0,1,314.42,93.8v21.73A10.08,10.08,0,0,1,304.36,125.6ZM277.63,86.74a7.07,7.07,0,0,0-7.07,7.06v21.73a7.08,7.08,0,0,0,7.07,7.07h26.73a7.07,7.07,0,0,0,7.06-7.07V93.8a7.07,7.07,0,0,0-7.06-7.06Z"/><g class="cls-24"><path class="cls-8" d="M243.85,85.7l-26.68,31.9A9.22,9.22,0,0,1,217,116V100.35L229.28,85.7Z"/><path class="cls-8" d="M257.16,87.2l-31.25,37.36h-.32a8.4,8.4,0,0,1-5.65-2.15L250.65,85.7h1.67A8.46,8.46,0,0,1,257.16,87.2Z"/></g><path class="cls-13" d="M252.39,126.55H225.65a10.07,10.07,0,0,1-10.06-10.06V94.75a10.08,10.08,0,0,1,10.06-10.06h26.74a10.08,10.08,0,0,1,10.06,10.06v21.74A10.07,10.07,0,0,1,252.39,126.55ZM225.65,87.69a7.07,7.07,0,0,0-7.06,7.06v21.74a7.07,7.07,0,0,0,7.06,7.06h26.74a7.07,7.07,0,0,0,7.06-7.06V94.75a7.07,7.07,0,0,0-7.06-7.06Z"/><circle class="cls-17" cx="285.68" cy="198.37" r="3.46"/><circle class="cls-17" cx="288.76" cy="192.48" r="0.58"/><circle class="cls-17" cx="284.73" cy="190.07" r="1.42"/><circle class="cls-17" cx="280.85" cy="193.77" r="0.71"/><circle class="cls-17" cx="278.18" cy="189.75" r="1.1"/><circle class="cls-17" cx="279.45" cy="200.56" r="1.27"/><circle class="cls-17" cx="279.09" cy="196.94" r="0.45"/><circle class="cls-17" cx="273.95" cy="193.54" r="0.48"/><circle class="cls-17" cx="276.83" cy="193.31" r="0.83"/><circle class="cls-17" cx="274.45" cy="198.79" r="0.5"/><circle class="cls-17" cx="236.04" cy="45.87" r="2.08"/><circle class="cls-17" cx="236.67" cy="42.16" r="0.42"/><circle class="cls-17" cx="234.29" cy="39.99" r="0.33"/><circle class="cls-17" cx="232.56" cy="43.59" r="0.84"/><circle class="cls-17" cx="234.09" cy="41.76" r="0.39"/><circle class="cls-17" cx="238.33" cy="40.31" r="1.24"/><circle class="cls-17" cx="238.4" cy="42.85" r="0.27"/><circle class="cls-17" cx="232.81" cy="46.34" r="0.47"/><circle class="cls-17" cx="231.72" cy="45.79" r="0.44"/><circle class="cls-17" cx="231.89" cy="40.78" r="0.46"/><circle class="cls-17" cx="234.93" cy="43.04" r="0.3"/><circle class="cls-17" cx="241.15" cy="42.16" r="1.26"/><circle class="cls-11" cx="327.43" cy="385.15" r="14.8"/><circle class="cls-11" cx="205.91" cy="385.15" r="14.8"/><rect class="cls-25" x="276.51" y="239.29" width="38.76" height="22.08" rx="6.28"/><rect class="cls-26" x="192.13" y="363.58" width="10.38" height="3.96" rx="1.98"/><rect class="cls-26" x="189.8" y="356.48" width="10.38" height="3.96" rx="1.98"/><rect class="cls-26" x="188.86" y="349.37" width="10.38" height="3.96" rx="1.98"/><rect class="cls-8" x="217.78" y="100.82" width="9.9" height="2.04" rx="1.02" transform="translate(324.57 -120.88) rotate(90)"/><rect class="cls-8" x="221.7" y="109.03" width="2.04" height="3.9" rx="1.02"/><rect class="cls-7" x="397.09" y="130.7" width="8.76" height="25.41" transform="translate(47.33 380.75) rotate(-53.49)"/><rect class="cls-7" x="397.09" y="130.7" width="8.76" height="25.41" transform="translate(179.83 -220.76) rotate(39.02)"/><ellipse class="cls-8" cx="256.49" cy="5.44" rx="1.8" ry="1.17" transform="translate(44.9 150.52) rotate(-35.65)"/><ellipse class="cls-8" cx="259.96" cy="3.2" rx="0.81" ry="0.53" transform="translate(46.86 152.12) rotate(-35.65)"/><path class="cls-13" d="M264.35,403.76a5.76,5.76,0,0,1-5.76-5.76V379.1H270.1V398A5.76,5.76,0,0,1,264.35,403.76Zm-4.76-23.66V398a4.76,4.76,0,1,0,9.51,0V380.1Z"/><path class="cls-13" d="M306.18,394.06H293.07a7.9,7.9,0,0,1-7.89-7.89v-1.4h1v1.4a6.9,6.9,0,0,0,6.89,6.89h13.11Z"/><path class="cls-13" d="M237.89,394.06H224.77v-1h13.12a6.9,6.9,0,0,0,6.89-6.89v-1.4h1v1.4A7.9,7.9,0,0,1,237.89,394.06Z"/><rect class="cls-13" x="265.49" y="387.93" width="8.11" height="2.53" rx="1.27"/><rect class="cls-13" x="265.49" y="392.03" width="8.11" height="2.53" rx="1.27"/><rect class="cls-13" x="265.49" y="396.13" width="8.11" height="2.53" rx="1.27"/><path class="cls-8" d="M208,112.54a8.86,8.86,0,0,1,1.74-5.18c.78-1.23-1.16-2.36-1.94-1.14a10.93,10.93,0,0,0-2.05,6.32c.06,1.44,2.31,1.45,2.25,0Z"/><path class="cls-8" d="M212.71,104.55a2,2,0,0,1,.89-.64,1.16,1.16,0,0,0,.79-1.39,1.15,1.15,0,0,0-1.39-.78,4.16,4.16,0,0,0-1.89,1.22,1.16,1.16,0,0,0,0,1.59,1.13,1.13,0,0,0,1.6,0Z"/><path class="cls-8" d="M193.27,321l.81,7.92c.19,1.9,3.2,1.92,3,0l-.81-7.92c-.2-1.9-3.2-1.92-3,0Z"/><path class="cls-8" d="M194.55,334.27a3.16,3.16,0,0,1,.14,1.16,1.5,1.5,0,0,0,1.5,1.5,1.54,1.54,0,0,0,1.5-1.5,6.51,6.51,0,0,0-.25-2,1.5,1.5,0,0,0-2.89.8Z"/><path class="cls-8" d="M234.32,455.69v2.53a1.5,1.5,0,0,0,3,0v-2.53a1.5,1.5,0,0,0-3,0Z"/><path class="cls-8" d="M239.85,59a19.42,19.42,0,0,1,6.72-5.13c1.75-.81.23-3.4-1.51-2.59a21.42,21.42,0,0,0-7.33,5.6c-1.25,1.46.87,3.6,2.12,2.12Z"/><path class="cls-8" d="M251,52.09l1.9-.72A1.53,1.53,0,0,0,254,49.53a1.51,1.51,0,0,0-1.85-1.05l-1.9.72A1.53,1.53,0,0,0,249.16,51,1.51,1.51,0,0,0,251,52.09Z"/><path class="cls-8" d="M220.2,147.5v9.64a1.5,1.5,0,0,0,3,0V147.5a1.5,1.5,0,0,0-3,0Z"/><circle class="cls-8" cx="221.84" cy="164.38" r="1.91"/></g></g></svg>