<svg xmlns="http://www.w3.org/2000/svg" xmlns:xlink="http://www.w3.org/1999/xlink" xmlns:fi="http://pattern.flaticon.com/" x="0" y="0" width="1000" height="500" viewBox="0 0 1000 500"><rect x="0px" y="0px" width="100%" height="100%" opacity="1" fill="#202a3a"/><defs><g transform="matrix(0.1171875 0 0 0.1171875 255 80)" id="L1_0"><g><path d="M130.844,409.6c-28.233,0-51.2-22.967-51.2-51.2c0-9.411,7.656-17.067,17.067-17.067h68.267   c9.411,0,17.067,7.656,17.067,17.067C182.044,386.633,159.077,409.6,130.844,409.6z" fill="#54ccff"/><path d="M153.6,284.444V147.911c0-18.822,15.311-34.133,34.133-34.133h136.533   c18.822,0,34.133,15.311,34.133,34.133v136.533H153.6z" fill="#54ccff"/></g><path d="M324.266,113.778H256v170.667h102.4V147.911C358.4,129.089,343.089,113.778,324.266,113.778z" fill="#4bb8e6"/><path d="M256,284.444c-28.233,0-51.2-22.967-51.2-51.2s22.967-51.2,51.2-51.2s51.2,22.967,51.2,51.2  S284.232,284.444,256,284.444z" fill="#f9bc35"/><path d="M256,113.778c-28.233,0-51.2-22.967-51.2-51.2s22.967-51.2,51.2-51.2s51.2,22.967,51.2,51.2  S284.232,113.778,256,113.778z" fill="#54ccff"/><path d="M170.666,483.555V352.711H35.48c-16.508,0-31.671-11.125-34.818-27.331  c-4.234-21.791,12.423-40.936,33.471-40.936h442.386c16.508,0,31.671,11.125,34.818,27.331  c4.234,21.791-12.423,40.936-33.471,40.936H341.333v130.844c0,9.425-7.641,17.067-17.067,17.067H187.733  C178.308,500.622,170.666,492.981,170.666,483.555z" fill="#f9bc35"/><g><path d="M381.155,409.6c-28.233,0-51.2-22.967-51.2-51.2c0-9.411,7.656-17.067,17.067-17.067h68.267   c9.411,0,17.067,7.656,17.067,17.067C432.355,386.633,409.388,409.6,381.155,409.6z" fill="#4bb8e6"/><path d="M307.2,62.578c0-28.233-22.967-51.2-51.2-51.2v102.4C284.232,113.778,307.2,90.81,307.2,62.578z" fill="#4bb8e6"/></g><g><path d="M307.2,233.244c0-28.233-22.967-51.2-51.2-51.2v102.4C284.232,284.444,307.2,261.477,307.2,233.244z   " fill="#f39e31"/><path d="M476.519,284.444H256v216.178h68.267c9.425,0,17.067-7.641,17.067-17.067V352.711h136.533   c21.048,0,37.704-19.145,33.472-40.937C508.191,295.57,493.027,284.444,476.519,284.444z" fill="#f39e31"/></g></g><g transform="matrix(0.1171875 0 0 0.1171875 314 282)" id="L1_1"><g><path d="M300.522,66.783c0,25.711-19.478,46.97-44.522,49.753c-1.78,0.223-3.674,0.334-5.565,0.334   c-27.603,0-50.087-22.483-50.087-50.087s22.483-50.087,50.087-50.087c1.891,0,3.785,0.111,5.565,0.334   C281.043,19.812,300.522,41.071,300.522,66.783z" fill="#54ccff"/><path d="M406.261,289.391h-66.783c0-28.271-13.579-67.339-26.046-100.842l-17.919,29.162   c-3.339,5.454-8.014,9.795-13.468,12.466L256,243.2l-40.736,20.369c-16.029,8.125-36.285,2.003-44.744-14.915   c-8.348-16.584-1.448-36.619,14.913-44.744l56.878-28.494c5.565-11.13,10.016-20.257,13.69-27.603   c15.471-31.944,15.915-34.059,23.597-40.181c11.464-9.35,28.382-10.24,40.961-0.779   C370.756,144.473,406.261,226.727,406.261,289.391z" fill="#54ccff"/></g><path d="M50.087,495.304c-9.223,0-16.696-7.473-16.696-16.696v-77.913c0-9.223,7.473-16.696,16.696-16.696  s16.696,7.473,16.696,16.696v77.913C66.783,487.831,59.31,495.304,50.087,495.304z" fill="#c4cad9"/><path d="M461.913,495.304c-9.223,0-16.696-7.473-16.696-16.696v-77.913c0-9.223,7.473-16.696,16.696-16.696  s16.696,7.473,16.696,16.696v77.913C478.609,487.831,471.136,495.304,461.913,495.304z" fill="#b8bfcc"/><path d="M378.435,495.304c-18.413,0-33.391-14.978-33.391-33.391v-72.348h66.783v72.348  C411.826,480.326,396.848,495.304,378.435,495.304z" fill="#4bb8e6"/><path d="M61.217,350.609c-27.619,0-50.087-22.468-50.087-50.087s22.468-50.087,50.087-50.087  s50.087,22.468,50.087,50.087S88.836,350.609,61.217,350.609z" fill="#f9bc35"/><path d="M512,384c0,18.365-15.026,33.391-33.391,33.391H33.391C15.026,417.391,0,402.365,0,384  s15.026-33.391,33.391-33.391h445.217C496.974,350.609,512,365.635,512,384z" fill="#5c5f66"/><path d="M512,317.217c0,18.365-15.026,33.391-33.391,33.391H178.087v44.522c0,5.12-1.224,10.351-3.563,14.915  l-33.391,66.783c-8.348,16.918-28.604,23.04-44.744,14.915c-16.473-8.237-23.149-28.271-14.913-44.744l29.828-59.77v-70.233  c0.111-18.365,15.026-33.169,33.391-33.169h333.913C496.974,283.826,512,298.852,512,317.217z" fill="#f9bc35"/><g><path d="M300.522,66.783c0,25.711-19.478,46.97-44.522,49.753V17.03   C281.043,19.812,300.522,41.071,300.522,66.783z" fill="#4bb8e6"/><path d="M406.261,289.391h-66.783c0-28.271-13.579-67.339-26.046-100.842l-17.919,29.162   c-3.339,5.454-8.014,9.795-13.468,12.466L256,243.2v-95.388c15.471-31.944,15.915-34.059,23.597-40.181   c11.464-9.35,28.382-10.24,40.961-0.779C370.756,144.473,406.261,226.727,406.261,289.391z" fill="#4bb8e6"/></g><path d="M512,384c0,18.365-15.026,33.391-33.391,33.391H256v-66.783h222.609  C496.974,350.609,512,365.635,512,384z" fill="#53565c"/><path d="M512,317.217c0,18.365-15.026,33.391-33.391,33.391H256v-66.783h222.609  C496.974,283.826,512,298.852,512,317.217z" fill="#f39e31"/></g><g transform="matrix(0.1171875 0 0 0.1171875 30 228)" id="L1_2"><path d="M417.614,322.783H238.859c-31.499-5.677-55.207-34.17-55.207-66.783v-33.391  c0-36.842,29.94-66.783,66.783-66.783H359.96c27.157,0,51.31,16.25,61.661,41.294c25.043,74.463,19.59,58.101,27.492,81.697  C456.236,300.299,440.321,322.671,417.614,322.783z" fill="#54ccff"/><g><path d="M417.614,322.783H256V155.826h103.959c27.157,0,51.31,16.25,61.661,41.294   c25.043,74.463,19.59,58.101,27.492,81.697C456.236,300.299,440.321,322.671,417.614,322.783z" fill="#4bb8e6"/><path d="M306.087,155.826c-27.619,0-50.087-22.468-50.087-50.087s22.468-50.087,50.087-50.087   s50.087,22.468,50.087,50.087S333.706,155.826,306.087,155.826z" fill="#4bb8e6"/></g><path d="M33.391,456.348C14.978,456.348,0,441.37,0,422.957s14.978-33.391,33.391-33.391h445.217  c18.413,0,33.391,14.978,33.391,33.391s-14.978,33.391-33.391,33.391H33.391z" fill="#5c5f66"/><path d="M478.609,389.565H256v66.783h222.609c18.413,0,33.391-14.978,33.391-33.391  C512,404.543,497.022,389.565,478.609,389.565z" fill="#53565c"/><path d="M128,389.565c-18.413,0-33.391-14.978-33.391-33.391s14.978-33.391,33.391-33.391h345.043  c18.413,0,33.391,14.978,33.391,33.391s-14.978,33.391-33.391,33.391H128z" fill="#f9bc35"/><path d="M488.007,212.033c-5.71-17.153-24.309-27.117-42.239-21.103l-100.174,33.391  c-14.989,5-22.826,19.718-22.826,31.679v83.478h66.783V280.07l77.348-25.783C484.361,248.464,493.867,229.591,488.007,212.033z" fill="#e7812e"/><path d="M473.043,322.783H256v66.783h217.043c18.413,0,33.391-14.978,33.391-33.391  C506.435,337.761,491.457,322.783,473.043,322.783z" fill="#f39e31"/><path d="M50.087,389.565C22.468,389.565,0,367.097,0,339.478s22.468-50.087,50.087-50.087  s50.087,22.468,50.087,50.087S77.706,389.565,50.087,389.565z" fill="#f9bc35"/></g><g transform="matrix(0.1171875 0 0 0.1171875 170 117)" id="L1_3"><path d="M352.001,279.27v126.484c0,16.84-11.307,32.331-27.826,35.605  c-22.262,4.411-41.992-12.56-41.992-34.207l0.116-93.09H178.238c-4.097,0-7.19-3.718-6.443-7.746l11.48-61.954h133.817  C336.292,244.361,352.001,260.07,352.001,279.27z" fill="#e7812e"/><path d="M107.606,512c-6.114,0-12.301-1.608-17.926-4.983c-16.534-9.92-21.891-31.363-11.971-47.891  c42.42-70.698,64.841-163.288,64.841-245.742v-73.749c0-19.278,15.631-34.909,34.909-34.909s34.909,15.631,34.909,34.909v73.749  c0,95.106-25.864,200.118-74.794,281.662C131.026,505.955,119.463,512,107.606,512z" fill="#f39e31"/><g><path d="M177.457,314.178c-8.932,0-17.869-3.409-24.682-10.227l-69.817-69.817   c-13.636-13.631-13.636-35.733,0-49.363l69.817-69.817c13.625-13.636,35.738-13.636,49.363,0c13.636,13.631,13.636,35.733,0,49.363   l-45.13,45.136l45.13,45.136c13.636,13.631,13.636,35.733,0,49.363C195.327,310.769,186.389,314.178,177.457,314.178z" fill="#f9bc35"/><path d="M194.911,104.726c-28.874,0-52.363-23.489-52.363-52.363S166.037,0,194.911,0   s52.363,23.489,52.363,52.363S223.787,104.726,194.911,104.726z" fill="#f9bc35"/></g><path d="M421.818,511.994H212.366c-9.636,0-17.454-7.813-17.454-17.454c0-48.124,39.148-87.272,87.272-87.272  h69.817c48.124,0,87.272,39.148,87.272,87.272C439.272,504.182,431.455,511.994,421.818,511.994z" fill="#4bb8e6"/></g><g transform="matrix(0.1171872690320015 0 0 0.1171872690320015 148 309)" id="L1_4"><path d="M411.826,94.609c0,18.365-15.026,33.391-33.391,33.391h-72.348l-24.932,18.699l-8.459-3.562  l-62.553-26.713l62.553-46.859l2.226-1.67c5.788-4.341,12.911-6.678,20.035-6.678h83.478  C396.8,61.217,411.826,76.243,411.826,94.609z" fill="#f29a36"/><path d="M411.826,94.609c0,18.365-15.026,33.391-33.391,33.391h-72.348l-24.932,18.699l-8.459-3.562V69.565  l2.226-1.67c5.788-4.341,12.911-6.678,20.035-6.678h83.478C396.8,61.217,411.826,76.243,411.826,94.609z" fill="#e7812e"/><path d="M333.913,272.696l-61.217-16.028l-3.452-0.89l-3.227,0.445c-2.783-21.37-10.909-42.073-23.374-59.881  l-9.907-14.136l-45.745,34.281c-5.788,4.341-12.911,6.678-20.035,6.678H83.478c-18.365,0-33.391-15.026-33.391-33.391  s15.026-33.391,33.391-33.391h72.348l57.878-43.409c11.353-8.458,26.603-8.57,36.508-2.449c7.903,5.343,15.471,11.464,22.483,18.365  C310.205,164.619,333.69,218.379,333.913,272.696z" fill="#f9bc35"/><path d="M333.913,272.696l-61.217-16.028V128.89C310.205,164.619,333.69,218.379,333.913,272.696z" fill="#f39e31"/><path d="M491.297,249.099c-12.911,3.228-25.489,8.125-37.287,14.47c-36.843,19.923-80.918,19.923-117.761,0  c-19.923-10.797-41.628-16.918-63.555-18.477c-29.273-2.226-58.991,4.007-85.816,18.477c-36.843,19.923-80.918,19.923-117.761,0  c-15.692-8.459-32.387-14.136-49.751-17.03C9.239,244.87,0,252.772,0,263.012v215.596c0,9.238,7.456,16.696,16.696,16.696h478.609  c9.239,0,16.696-7.457,16.696-16.696V265.35C512,254.553,501.983,246.539,491.297,249.099z" fill="#54ccff"/><path d="M512,265.35v213.259c0,9.238-7.456,16.696-16.696,16.696H272.696V245.092  c21.927,1.558,43.63,7.68,63.555,18.477c36.843,19.923,80.918,19.923,117.761,0c11.797-6.344,24.375-11.242,37.287-14.47  C501.983,246.539,512,254.553,512,265.35z" fill="#4bb8e6"/><path d="M469.816,292.953c-46.748,25.266-102.623,25.266-149.369,0c-15.027-8.125-31.278-12.911-47.75-14.358  c-23.819-2.226-48.196,2.56-70.01,14.358c-46.748,25.266-102.623,25.266-149.369,0c-6.457-3.45-13.135-6.344-19.923-8.682v177.642  h445.217V288.612C475.603,289.948,472.71,291.395,469.816,292.953z" fill="#5af1ff"/><path d="M478.609,288.612v173.301H272.696V278.595c16.473,1.447,32.722,6.233,47.75,14.358  c46.748,25.266,102.623,25.266,149.369,0C472.71,291.395,475.603,289.948,478.609,288.612z" fill="#51dae6"/><path d="M372.846,245.043c-7.837,0-14.837-5.554-16.37-13.544c-2.044-10.625-4.815-21.222-8.229-31.511  c-2.902-8.75,1.837-18.202,10.587-21.103c8.772-2.897,18.196,1.837,21.109,10.593c3.87,11.652,7,23.669,9.315,35.706  c1.75,9.055-4.185,17.81-13.24,19.554C374.955,244.94,373.9,245.043,372.846,245.043z" fill="#dae2f2"/><path d="M389.12,452.118c-13.133,13.134-34.169,13.023-47.193,0c-31.054-31.054-42.963-56.543-69.12-103.847  c0,0.334-0.111,0.668-0.111,1.002c-6.345,54.094-7.345,60.327-7.345,73.461c0,25.6-14.805,39.179-33.503,39.179  c-18.366,0-33.28-15.026-33.28-33.391c0-49.753,10.128-90.824,17.362-107.854c10.017-4.341,31.164-9.127,49.42-9.127  c2.449,0,4.896,0.111,7.345,0.223c34.172,1.892,58.769,16.473,73.351,22.929c10.239,24.598,25.376,51.311,43.853,71.123  C402.254,418.95,401.92,439.318,389.12,452.118z" fill="#54ccff"/><path d="M194.783,116.87c-27.619,0-50.087-22.468-50.087-50.087s22.468-50.087,50.087-50.087  s50.087,22.468,50.087,50.087S222.402,116.87,194.783,116.87z" fill="#f9bc35"/><path d="M389.12,452.118c-13.133,13.134-34.169,13.023-47.193,0c-31.054-31.054-42.963-56.543-69.12-103.847  c0,0.334-0.111,0.668-0.111,1.002v-37.51c34.172,1.892,58.769,16.473,73.351,22.929c10.239,24.598,25.376,51.311,43.853,71.123  C402.254,418.95,401.92,439.318,389.12,452.118z" fill="#4bb8e6"/></g><g transform="matrix(0.1171875 0 0 0.1171875 68 333)" id="L1_5"><path d="M366.97,67.674v98.393C332.8,177.531,294.4,183.208,256,183.208s-76.8-5.675-110.97-17.141  c-0.111,0-0.223-0.111-0.334-0.111v-98.17c0.111,0,0.223-0.111,0.334-0.111C179.2,56.321,217.6,50.533,256,50.533  S332.8,56.321,366.97,67.674z" fill="#54ccff"/><path d="M366.97,67.674v98.393C332.8,177.531,294.4,183.208,256,183.208V50.533  C294.4,50.533,332.8,56.321,366.97,67.674z" fill="#4bb8e6"/><path d="M507.104,38.29L473.712,4.898c-3.117-3.116-7.347-4.897-11.799-4.897H395.13  c-4.452,0-8.682,1.781-11.799,4.897L349.94,38.29c-3.117,3.117-4.896,7.346-4.896,11.798v133.565c0,4.452,1.78,8.682,4.896,11.798  l33.391,33.391c3.117,3.117,7.346,4.897,11.799,4.897h66.783c4.452,0,8.682-1.781,11.799-4.897l33.391-33.391  c3.117-3.117,4.896-7.346,4.896-11.798V50.088C512,45.636,510.22,41.406,507.104,38.29z" fill="#54ccff"/><path d="M512,50.088v133.565c0,4.452-1.78,8.682-4.896,11.798l-33.391,33.391  c-3.116,3.117-7.346,4.897-11.799,4.897h-33.391V0.001h33.391c4.452,0,8.682,1.781,11.799,4.897l33.391,33.391  C510.22,41.406,512,45.636,512,50.088z" fill="#4bb8e6"/><path d="M162.06,38.29L128.669,4.898c-3.118-3.116-7.347-4.897-11.799-4.897H50.087  c-4.452,0-8.682,1.781-11.799,4.897L4.896,38.29C1.78,41.406,0,45.636,0,50.088v133.565c0,4.452,1.78,8.682,4.896,11.798  l33.391,33.391c3.118,3.117,7.347,4.897,11.799,4.897h66.783c4.452,0,8.682-1.781,11.799-4.897l33.391-33.391  c3.117-3.117,4.896-7.346,4.896-11.798V50.088C166.957,45.636,165.177,41.406,162.06,38.29z" fill="#54ccff"/><path d="M166.957,50.088v133.565c0,4.452-1.78,8.682-4.896,11.798l-33.391,33.391  c-3.117,3.117-7.346,4.897-11.799,4.897H83.478V0.001h33.391c4.452,0,8.682,1.781,11.799,4.897l33.391,33.391  C165.177,41.406,166.957,45.636,166.957,50.088z" fill="#4bb8e6"/><path d="M366.97,345.935v98.393C332.8,455.792,294.4,461.469,256,461.469s-76.8-5.675-110.97-17.141  c-0.111,0-0.223-0.111-0.334-0.111v-98.17c0.111,0,0.223-0.111,0.334-0.111c34.169-11.353,72.57-17.141,110.97-17.141  S332.8,334.581,366.97,345.935z" fill="#54ccff"/><path d="M366.97,345.935v98.393C332.8,455.792,294.4,461.469,256,461.469V328.794  C294.4,328.794,332.8,334.581,366.97,345.935z" fill="#4bb8e6"/><path d="M507.104,316.55l-33.391-33.391c-3.116-3.117-7.346-4.897-11.799-4.897H395.13  c-4.452,0-8.682,1.781-11.799,4.897L349.94,316.55c-3.117,3.117-4.896,7.346-4.896,11.798v133.565c0,4.452,1.78,8.682,4.896,11.798  l33.391,33.391c3.117,3.116,7.346,4.897,11.799,4.897h66.783c4.452,0,8.682-1.781,11.799-4.897l33.391-33.391  c3.117-3.117,4.896-7.346,4.896-11.798V328.349C512,323.896,510.22,319.667,507.104,316.55z" fill="#54ccff"/><path d="M512,328.349v133.565c0,4.452-1.78,8.682-4.896,11.798l-33.391,33.391  c-3.116,3.116-7.346,4.897-11.799,4.897h-33.391V278.261h33.391c4.452,0,8.682,1.781,11.799,4.897l33.391,33.391  C510.22,319.667,512,323.896,512,328.349z" fill="#4bb8e6"/><path d="M162.06,316.55l-33.391-33.391c-3.117-3.117-7.346-4.897-11.799-4.897H50.087  c-4.452,0-8.682,1.781-11.799,4.897L4.896,316.55C1.78,319.667,0,323.896,0,328.349v133.565c0,4.452,1.78,8.682,4.896,11.798  l33.391,33.391c3.118,3.116,7.347,4.897,11.799,4.897h66.783c4.452,0,8.682-1.781,11.799-4.897l33.391-33.391  c3.117-3.117,4.896-7.346,4.896-11.798V328.349C166.957,323.896,165.177,319.667,162.06,316.55z" fill="#54ccff"/><path d="M166.957,328.349v133.565c0,4.452-1.78,8.682-4.896,11.798l-33.391,33.391  c-3.117,3.116-7.346,4.897-11.799,4.897H83.478V278.261h33.391c4.452,0,8.682,1.781,11.799,4.897l33.391,33.391  C165.177,319.667,166.957,323.896,166.957,328.349z" fill="#4bb8e6"/></g><g transform="matrix(0.1171875 0 0 0.1171875 55.00000041484833 119)" id="L1_6"><path d="M222.609,50.087c0,27.603-22.483,50.087-50.087,50.087c-3.785,0-7.568-0.445-11.13-1.336  c-22.261-5.009-38.957-24.932-38.957-48.751S139.13,6.344,161.392,1.336C164.954,0.445,168.736,0,172.522,0  C200.125,0,222.609,22.483,222.609,50.087z" fill="#f9bc35"/><path d="M322.783,345.043v130.56c0,18.365-15.026,33.391-33.391,33.391s-33.391-15.026-33.391-33.391v-130.56  h-66.783c-9.906,0-19.367-2.115-27.826-6.122c-22.93-10.463-38.957-33.725-38.957-60.661V128c0-5.454,1.336-10.797,4.007-15.694  l73.906,73.906v92.049H256C292.843,278.261,322.783,308.202,322.783,345.043z" fill="#f29a36"/><path d="M122.435,495.304V361.739c0-9.22,7.475-16.696,16.696-16.696h100.174  c9.22,0,16.696,7.475,16.696,16.696v133.565c0,9.22-7.475,16.696-16.696,16.696H139.13C129.91,512,122.435,504.525,122.435,495.304z  " fill="#5c5f66"/><path d="M222.609,50.087c0,27.603-22.483,50.087-50.087,50.087c-3.785,0-7.568-0.445-11.13-1.336V1.336  C164.954,0.445,168.736,0,172.522,0C200.125,0,222.609,22.483,222.609,50.087z" fill="#f39e31"/><path d="M161.392,512h77.913c9.22,0,16.696-7.475,16.696-16.696V361.739c0-9.22-7.475-16.696-16.696-16.696  h-77.913L161.392,512L161.392,512z" fill="#53565c"/><path d="M322.783,345.043v129.882c0,17.507-13.211,32.552-30.661,33.959  C272.539,510.463,256,494.871,256,475.603V361.739c0-9.22-7.475-16.696-16.696-16.696h-50.087c-9.906,0-19.367-2.115-27.826-6.122  V147.256l38.957,38.957v92.049H256C292.883,278.261,322.783,308.161,322.783,345.043z" fill="#e7812e"/><path d="M305.53,159.165l-59.325,59.214c-13.135,13.134-34.282,12.911-47.193,0l-66.783-66.783  c-6.567-6.567-9.795-15.026-9.795-23.597c0-5.454,1.336-10.797,4.007-15.694c7.012-13.468,21.593-19.478,34.95-17.252  c6.678,1.113,13.021,4.23,18.031,9.35l43.186,43.186l35.617-35.729L305.53,159.165z" fill="#f9bc35"/><path d="M305.53,159.165l-59.325,59.214c-13.135,13.134-34.282,12.911-47.193,0l-37.621-37.621V95.054  c6.678,1.113,13.021,4.23,18.031,9.35l43.186,43.186l35.617-35.729L305.53,159.165z" fill="#f39e31"/><path d="M322.783,194.783C285.956,194.783,256,164.826,256,128s29.956-66.783,66.783-66.783  S389.565,91.174,389.565,128S359.609,194.783,322.783,194.783z" fill="#54ccff"/><path d="M322.783,161.391c-18.413,0-33.391-14.978-33.391-33.391s14.978-33.391,33.391-33.391  s33.391,14.978,33.391,33.391S341.197,161.391,322.783,161.391z" fill="#4bb8e6"/><g><circle cx="322" cy="128" r="16" fill="#43bfbf"/><circle cx="322" cy="128" r="16" fill="#43bfbf"/></g><circle cx="322" cy="128" r="16" fill="#5c5f66"/></g></defs><g fi:class="KUsePattern"><pattern id="pattern_L1_0" width="350" height="350" patternUnits="userSpaceOnUse"><use xlink:href="#L1_0" x="-350" y="-350"/><use xlink:href="#L1_0" x="0" y="-350"/><use xlink:href="#L1_0" x="350" y="-350"/><use xlink:href="#L1_0" x="-350" y="0"/><use xlink:href="#L1_0" x="0" y="0"/><use xlink:href="#L1_0" x="350" y="0"/><use xlink:href="#L1_0" x="-350" y="350"/><use xlink:href="#L1_0" x="0" y="350"/><use xlink:href="#L1_0" x="350" y="350"/></pattern><rect x="0" y="0" width="100%" height="100%" fill="url(#pattern_L1_0)"/></g><g fi:class="KUsePattern"><pattern id="pattern_L1_1" width="350" height="350" patternUnits="userSpaceOnUse"><use xlink:href="#L1_1" x="-350" y="-350"/><use xlink:href="#L1_1" x="0" y="-350"/><use xlink:href="#L1_1" x="350" y="-350"/><use xlink:href="#L1_1" x="-350" y="0"/><use xlink:href="#L1_1" x="0" y="0"/><use xlink:href="#L1_1" x="350" y="0"/><use xlink:href="#L1_1" x="-350" y="350"/><use xlink:href="#L1_1" x="0" y="350"/><use xlink:href="#L1_1" x="350" y="350"/></pattern><rect x="0" y="0" width="100%" height="100%" fill="url(#pattern_L1_1)"/></g><g fi:class="KUsePattern"><pattern id="pattern_L1_2" width="350" height="350" patternUnits="userSpaceOnUse"><use xlink:href="#L1_2" x="-350" y="-350"/><use xlink:href="#L1_2" x="0" y="-350"/><use xlink:href="#L1_2" x="350" y="-350"/><use xlink:href="#L1_2" x="-350" y="0"/><use xlink:href="#L1_2" x="0" y="0"/><use xlink:href="#L1_2" x="350" y="0"/><use xlink:href="#L1_2" x="-350" y="350"/><use xlink:href="#L1_2" x="0" y="350"/><use xlink:href="#L1_2" x="350" y="350"/></pattern><rect x="0" y="0" width="100%" height="100%" fill="url(#pattern_L1_2)"/></g><g fi:class="KUsePattern"><pattern id="pattern_L1_3" width="350" height="350" patternUnits="userSpaceOnUse"><use xlink:href="#L1_3" x="-350" y="-350"/><use xlink:href="#L1_3" x="0" y="-350"/><use xlink:href="#L1_3" x="350" y="-350"/><use xlink:href="#L1_3" x="-350" y="0"/><use xlink:href="#L1_3" x="0" y="0"/><use xlink:href="#L1_3" x="350" y="0"/><use xlink:href="#L1_3" x="-350" y="350"/><use xlink:href="#L1_3" x="0" y="350"/><use xlink:href="#L1_3" x="350" y="350"/></pattern><rect x="0" y="0" width="100%" height="100%" fill="url(#pattern_L1_3)"/></g><g fi:class="KUsePattern"><pattern id="pattern_L1_4" width="350" height="350" patternUnits="userSpaceOnUse"><use xlink:href="#L1_4" x="-350" y="-350"/><use xlink:href="#L1_4" x="0" y="-350"/><use xlink:href="#L1_4" x="350" y="-350"/><use xlink:href="#L1_4" x="-350" y="0"/><use xlink:href="#L1_4" x="0" y="0"/><use xlink:href="#L1_4" x="350" y="0"/><use xlink:href="#L1_4" x="-350" y="350"/><use xlink:href="#L1_4" x="0" y="350"/><use xlink:href="#L1_4" x="350" y="350"/></pattern><rect x="0" y="0" width="100%" height="100%" fill="url(#pattern_L1_4)"/></g><g fi:class="KUsePattern"><pattern id="pattern_L1_5" width="350" height="350" patternUnits="userSpaceOnUse"><use xlink:href="#L1_5" x="-350" y="-350"/><use xlink:href="#L1_5" x="0" y="-350"/><use xlink:href="#L1_5" x="350" y="-350"/><use xlink:href="#L1_5" x="-350" y="0"/><use xlink:href="#L1_5" x="0" y="0"/><use xlink:href="#L1_5" x="350" y="0"/><use xlink:href="#L1_5" x="-350" y="350"/><use xlink:href="#L1_5" x="0" y="350"/><use xlink:href="#L1_5" x="350" y="350"/></pattern><rect x="0" y="0" width="100%" height="100%" fill="url(#pattern_L1_5)"/></g><g fi:class="KUsePattern"><pattern id="pattern_L1_6" width="350" height="350" patternUnits="userSpaceOnUse"><use xlink:href="#L1_6" x="-350" y="-350"/><use xlink:href="#L1_6" x="0" y="-350"/><use xlink:href="#L1_6" x="350" y="-350"/><use xlink:href="#L1_6" x="-350" y="0"/><use xlink:href="#L1_6" x="0" y="0"/><use xlink:href="#L1_6" x="350" y="0"/><use xlink:href="#L1_6" x="-350" y="350"/><use xlink:href="#L1_6" x="0" y="350"/><use xlink:href="#L1_6" x="350" y="350"/></pattern><rect x="0" y="0" width="100%" height="100%" fill="url(#pattern_L1_6)"/></g></svg>