<?xml version="1.0" standalone="no"?>
<svg xmlns:xlink="http://www.w3.org/1999/xlink" id="wave" style="transform:rotate(180deg); transition: 0.3s" viewBox="0 0 1440 490" version="1.1" xmlns="http://www.w3.org/2000/svg"><defs><linearGradient id="sw-gradient-0" x1="0" x2="0" y1="1" y2="0"><stop stop-color="rgba(101, 195, 157, 1)" offset="0%"/><stop stop-color="rgba(95, 121, 169, 1)" offset="100%"/></linearGradient></defs><path style="transform:translate(0, 0px); opacity:1" fill="url(#sw-gradient-0)" d="M0,0L480,147L960,343L1440,0L1920,147L2400,294L2880,245L3360,49L3840,147L4320,0L4800,196L5280,441L5760,196L6240,49L6720,245L7200,343L7680,98L8160,0L8640,343L9120,392L9600,147L10080,343L10560,49L11040,441L11520,49L11520,490L11040,490L10560,490L10080,490L9600,490L9120,490L8640,490L8160,490L7680,490L7200,490L6720,490L6240,490L5760,490L5280,490L4800,490L4320,490L3840,490L3360,490L2880,490L2400,490L1920,490L1440,490L960,490L480,490L0,490Z"/><defs><linearGradient id="sw-gradient-1" x1="0" x2="0" y1="1" y2="0"><stop stop-color="rgba(95, 121, 169, 1)" offset="0%"/><stop stop-color="rgba(101, 195, 157, 1)" offset="100%"/></linearGradient></defs><path style="transform:translate(0, 50px); opacity:0.9" fill="url(#sw-gradient-1)" d="M0,49L480,343L960,294L1440,49L1920,294L2400,147L2880,0L3360,441L3840,294L4320,441L4800,441L5280,0L5760,441L6240,147L6720,49L7200,441L7680,0L8160,343L8640,441L9120,196L9600,147L10080,245L10560,294L11040,147L11520,0L11520,490L11040,490L10560,490L10080,490L9600,490L9120,490L8640,490L8160,490L7680,490L7200,490L6720,490L6240,490L5760,490L5280,490L4800,490L4320,490L3840,490L3360,490L2880,490L2400,490L1920,490L1440,490L960,490L480,490L0,490Z"/><defs><linearGradient id="sw-gradient-2" x1="0" x2="0" y1="1" y2="0"><stop stop-color="rgba(101, 195, 157, 1)" offset="0%"/><stop stop-color="rgba(95, 121, 169, 1)" offset="100%"/></linearGradient></defs><path style="transform:translate(0, 100px); opacity:0.8" fill="url(#sw-gradient-2)" d="M0,441L480,0L960,98L1440,49L1920,245L2400,294L2880,147L3360,0L3840,147L4320,245L4800,245L5280,392L5760,294L6240,392L6720,294L7200,49L7680,49L8160,196L8640,343L9120,0L9600,0L10080,343L10560,196L11040,98L11520,343L11520,490L11040,490L10560,490L10080,490L9600,490L9120,490L8640,490L8160,490L7680,490L7200,490L6720,490L6240,490L5760,490L5280,490L4800,490L4320,490L3840,490L3360,490L2880,490L2400,490L1920,490L1440,490L960,490L480,490L0,490Z"/><defs><linearGradient id="sw-gradient-3" x1="0" x2="0" y1="1" y2="0"><stop stop-color="rgba(95, 121, 169, 1)" offset="0%"/><stop stop-color="rgba(101, 195, 157, 1)" offset="100%"/></linearGradient></defs><path style="transform:translate(0, 150px); opacity:0.7" fill="url(#sw-gradient-3)" d="M0,49L480,392L960,49L1440,49L1920,147L2400,196L2880,343L3360,441L3840,294L4320,245L4800,441L5280,245L5760,0L6240,147L6720,196L7200,0L7680,392L8160,245L8640,196L9120,196L9600,392L10080,392L10560,294L11040,441L11520,196L11520,490L11040,490L10560,490L10080,490L9600,490L9120,490L8640,490L8160,490L7680,490L7200,490L6720,490L6240,490L5760,490L5280,490L4800,490L4320,490L3840,490L3360,490L2880,490L2400,490L1920,490L1440,490L960,490L480,490L0,490Z"/></svg>